<?xml version="1.0" encoding="utf-8"?>
<!-- Generator: Adobe Illustrator 21.1.0, SVG Export Plug-In . SVG Version: 6.00 Build 0)  -->
<svg version="1.1" id="Layer_1" xmlns="http://www.w3.org/2000/svg" xmlns:xlink="http://www.w3.org/1999/xlink" wide="170.7" height="204.7"
	 viewBox="0 0 170.7 204.7" style="enable-background:new 0 0 170.7 204.7;" xml:space="preserve" fill="white">
<style type="text/css">
	.st0{fill:#FFFFFF;}
	.st1{fill:#0A195C;}
	.st2{fill:#BD9950;}
	.st3{fill:none;}
</style>
<g>
	<path class="st0" d="M143.5,86.7c-0.5,2.9-1.4,5.7-3.2,9.1c-6.4,12-18.4,19.2-32.6,27.3c-7.7,4.4-13.4,7.8-21.5,13.2l-1.3,0.2
		c-8.4-5.6-14.1-9-21.8-13.4c-14.3-8.2-26.2-15.3-32.6-27.3c-1.8-3.4-2.7-6.2-3.2-9.1c-0.4-2.8-0.4-5.8-0.4-9.7V2.3h117v74.8
		C143.9,80.9,143.9,83.9,143.5,86.7"/>
	<path class="st0" d="M19,123.8v-1.5c0-0.8,0.6-2.3,1.3-3.3c-0.7-1.3-1-2.7-1-3.9c0-0.1,0-0.4,0-1c0.1-2.1,1-4.6,3.5-6.6
		c0.1-0.1,0.2-0.2,0.3-0.3l0.5-0.5l1.5-1.4l0.7,1.9c0.4,0.9,0.7,1.9,1,2.8c0.2,0.6,1.3,1.3,2.4,1.6c1.9,0.6,3.7,0.8,5.6,1.5
		c1.6,0.6,4.4,1.9,5.3,3.8c0.2,0.3,0.4,0.9,0.5,1.2c0.1,0.3,0.3,1.1,0.3,1.4v5.7c6.1,2.9,12.2,5.2,18.3,6.7
		c6.3,1.6,12.7,2.7,19.1,3.1l2.7,0.2h4.4h4.4l2.7-0.2c6.4-0.4,12.8-1.5,19.1-3.1c6.1-1.6,12.2-3.8,18.3-6.7v-5.7
		c0-0.3,0.2-1.1,0.3-1.4s0.3-0.9,0.5-1.2c1-1.8,3.8-3.1,5.3-3.8c1.8-0.7,3.7-1,5.6-1.5c1.1-0.3,2.2-1,2.4-1.6c0.3-0.9,0.6-1.9,1-2.8
		l0.7-1.9l1.5,1.4l0.5,0.5c0.1,0.1,0.2,0.2,0.3,0.3c2.5,2,3.4,4.5,3.5,6.6c0,0.6,0,0.9,0,1c0,1.2-0.4,2.7-1,3.9
		c0.7,1,1.3,2.5,1.3,3.3v1.5c0,0.2,0,0.4-0.1,0.5c-0.4,3.2-4.2,5.7-7.2,6.5v3.8c0,1.1-0.5,3.6-2.3,4.6c-5.4,3.1-11.1,5.5-16.6,7.6
		c-1.3,0.5-2.7,1-4.1,1.4c-8,2.5-16.2,4.1-24.2,4.8l-5.6,0.3l-6.4,0.1l-6.4-0.1l-5.6-0.3c-8-0.7-16.2-2.3-24.2-4.8
		c-1.3-0.4-2.7-0.9-4.1-1.4c-5.5-2-11.2-4.5-16.6-7.6c-1.7-1-2.3-3.5-2.3-4.6v-3.8c-3-0.8-6.8-3.3-7.2-6.4C19,124.2,19,124,19,123.8
		"/>
	<path class="st1" d="M13,202.3h0.8l3.3-9.7c0.3-0.8,0.5-1.3,1.4-1.4v-0.6c-0.7,0-1.4,0.1-2,0.1s-1.2-0.1-1.8-0.1v0.6
		c0.8,0.1,1.4,0.2,1.4,1.2c0,0.7-0.6,2.5-0.8,3.2l-0.9,2.9l-2.8-7.9h-0.8l-2.5,8L6.7,194c-0.1-0.4-0.5-1.5-0.5-1.9
		c0-0.8,0.9-0.7,1.5-0.9v-0.6c-1,0-2.1,0.1-3.1,0.1c-0.9,0-1.8-0.1-2.7-0.1v0.6c1.2,0.2,1.2,0.5,1.6,1.6l3.3,9.5h0.9l2.6-7.5
		L13,202.3 M21.1,202.1c1,0,2-0.1,3-0.1c2.4,0,4.9,0.1,7.3,0.1c0-0.5-0.1-0.9-0.1-1.4c0-0.7,0.1-1.3,0.1-2h-0.7
		c-0.4,2-1.2,2.6-3.2,2.6c-2.1,0-2-1-2-2.7v-2c1.6,0,2.1,0.3,2.4,1.9h0.7c0-0.7-0.1-1.4-0.1-2.2s0.1-1.6,0.1-2.4h-0.7
		c-0.1,1.6-1,1.9-2.4,1.9v-3.2c0-0.1,0-0.9,0.1-1c0.1-0.2,1.2-0.2,1.5-0.2c1.7,0,2.7,0.5,3,2.3h0.8l-0.1-3.1c-2.2,0-4.3,0.1-6.5,0.1
		c-1,0-2-0.1-3-0.1v0.6c1.7-0.1,1.7,0.8,1.7,2.2v5.9c0,1.4,0,2.2-1.7,2.2v0.6H21.1z M36.2,201.1c0.8,0.8,1.9,1.2,3.1,1.2
		c2.2,0,4.2-1.2,4.2-3.6c0-2.3-1.8-3.2-3.7-4c-1-0.5-2.3-0.8-2.3-2.1c0-0.9,0.9-1.4,1.7-1.4c1.5,0,2.5,1.2,2.9,2.5h0.8l-0.1-3.1H42
		l-0.2,0.7c-0.7-0.6-1.7-0.9-2.6-0.9c-2,0-3.7,1.2-3.7,3.3c0,1.9,1.3,2.8,2.9,3.5c1.2,0.5,2.9,1,2.9,2.6c0,1.1-1,1.7-2,1.7
		c-2,0-2.8-1.5-3.3-3h-0.7v3.6H36L36.2,201.1z M58.5,190.6H47.2l-0.1,3.3h0.8c0.3-1.5,0.9-2.6,2.7-2.4c1.1,0.1,1.1,0,1.1,1.3v6.6
		c0,1.6,0,2.2-1.8,2.2v0.6c1,0,2.1-0.1,3.1-0.1s2.1,0.1,3.1,0.1v-0.6c-1.8,0-1.8-0.6-1.8-2.2v-6.6c0-1.4-0.1-1.3,1.1-1.3
		c1.5,0,2.4,1,2.6,2.4h0.8L58.5,190.6z M62.1,202.1c1,0,2-0.1,3-0.1c2.4,0,4.9,0.1,7.3,0.1c0-0.5-0.1-0.9-0.1-1.4
		c0-0.7,0.1-1.3,0.1-2h-0.7c-0.4,2-1.2,2.6-3.2,2.6c-2.1,0-2-1-2-2.7v-2c1.6,0,2.1,0.3,2.4,1.9h0.7c0-0.7-0.1-1.4-0.1-2.2
		s0.1-1.6,0.1-2.4h-0.7c-0.1,1.6-1,1.9-2.4,1.9v-3.2c0-0.1,0-0.9,0.1-1c0.1-0.2,1.2-0.2,1.4-0.2c1.7,0,2.7,0.5,3,2.3h0.8l-0.1-3.1
		c-2.2,0-4.3,0.1-6.5,0.1c-1,0-2-0.1-3-0.1v0.6c1.7-0.1,1.7,0.8,1.7,2.2v5.9c0,1.4,0,2.2-1.7,2.2v0.6H62.1z M83.4,196.3
		c1.4-0.2,2.8-1.2,2.8-2.8c0-1.2-0.6-2.2-1.7-2.6c-0.8-0.3-2.1-0.4-2.9-0.4c-1,0-1.9,0.1-2.9,0.1s-2-0.1-3-0.1v0.6
		c1.7-0.1,1.7,0.8,1.7,2.2v5.9c0,1.4,0,2.2-1.7,2.2v0.6c1,0,2-0.1,3-0.1s2,0.1,3,0.1v-0.6c-1.7,0-1.7-0.8-1.7-2.2V197
		c0.1,0,0.2,0,0.3,0c0.5,0,1.3,0.8,1.8,1.6l2.5,3.5c0.6,0,1.2-0.1,1.7-0.1c0.6,0,1.2,0.1,1.7,0.1v-0.6c-0.5-0.1-0.8-0.2-1.1-0.6
		c-0.4-0.5-0.8-1-1.2-1.5L83.4,196.3z M80,196.2v-3c0-0.2,0-1.4,0.1-1.6c0.1-0.2,0.7-0.2,0.8-0.2c1.7,0,2.3,0.8,2.3,2.4
		c0,1.7-0.9,2.4-2.6,2.4L80,196.2L80,196.2z M101.6,202.3h0.9V194c0-0.6,0-1.6,0.3-2.1c0.2-0.5,0.8-0.5,1.3-0.6v-0.6
		c-0.7,0-1.4,0.1-2.1,0.1s-1.3-0.1-2-0.1v0.6c1.7,0.1,1.7,1.3,1.7,2.7v4.6l-7-7.9c-0.7,0-1.3,0.1-2,0.1c-0.6,0-1.1-0.1-1.7-0.1v0.6
		c1,0.1,1.2,0.4,1.8,1.2v7c0,1.2-0.1,1.9-1.6,2.1v0.6c0.7,0,1.3-0.1,2-0.1s1.4,0.1,2.1,0.1v-0.6c-1.7-0.1-1.7-1.4-1.7-2.8v-5.4
		L101.6,202.3z M125.3,202h0.7v-3.9h-0.7c-0.3,1.8-1.4,3.4-3.4,3.3c-2.8,0-3.6-2.7-3.6-5.1c0-2.2,0.8-5.1,3.5-5.1
		c1.8,0,3,1.2,3.3,2.9h0.8l-0.2-3.7H125l-0.3,1c-1-0.8-2.1-1.1-3.3-1.1c-3.6,0-6.2,2.6-6.2,6.1s2.5,5.7,6,5.7c1.4,0,2.8-0.3,3.8-1.3
		L125.3,202z M131.9,198.5h3.9l0.4,1c0.1,0.3,0.3,0.9,0.3,1.2c0,0.8-0.9,0.7-1.5,0.8v0.6c0.9,0,1.9-0.1,2.8-0.1
		c1.1,0,2.1,0.1,3.2,0.1v-0.6c-0.4-0.1-0.9-0.1-1.2-0.4c-0.4-0.4-0.7-1.2-0.9-1.7l-3.6-9h-0.8l-3.5,8.3c-0.5,1.1-1,2.8-2.4,2.8v0.6
		c0.7,0,1.3-0.1,2-0.1s1.5,0.1,2.2,0.1v-0.6c-0.7-0.1-1.5-0.1-1.5-1c0-0.5,0.3-1,0.4-1.5L131.9,198.5z M145.1,199.3
		c0,1.4,0,2.2-1.7,2.2v0.6c1,0,2-0.1,2.9-0.1c1.1,0,2.2,0.1,3.2,0.1v-0.6c-1.8,0-1.8-0.6-1.8-2.2v-2.5h1.6c2,0,4.4-0.7,4.4-3.1
		c0-2.6-2.6-3.1-4.7-3.2c-0.9,0-1.8,0.1-2.8,0.1s-1.9-0.1-2.9-0.1v0.6c1.7-0.1,1.7,0.8,1.7,2.2v6H145.1z M132.2,197.7l1.7-4l1.6,4
		H132.2z M147.8,196v-3.8c0-0.9,0-0.8,0.9-0.9c1.5,0,2.2,0.9,2.2,2.3c0,1.9-1,2.4-2.7,2.4H147.8z M157.3,202.1c1,0,2-0.1,3-0.1
		c2.4,0,4.9,0.1,7.3,0.1c0-0.5-0.1-0.9-0.1-1.4c0-0.7,0.1-1.3,0.1-2h-0.7c-0.4,2-1.2,2.6-3.2,2.6c-2.1,0-2-1-2-2.7v-2
		c1.6,0,2.1,0.3,2.4,1.9h0.7c0-0.7-0.1-1.4-0.1-2.2s0.1-1.6,0.1-2.4h-0.7c-0.1,1.6-1,1.9-2.4,1.9v-3.2c0-0.1,0-0.9,0.1-1
		c0.1-0.2,1.2-0.2,1.4-0.2c1.7,0,2.7,0.5,3,2.3h0.8l-0.1-3.1c-2.2,0-4.3,0.1-6.5,0.1c-1,0-2-0.1-3-0.1v0.6c1.7-0.1,1.7,0.8,1.7,2.2
		v5.9c0,1.4,0,2.2-1.7,2.2v0.6H157.3z M2.8,166.3c1.7,0,1.7,0.8,1.7,2.2v4.2c0,3.6,2,4.7,5.1,4.7c3.2,0,4.9-1.6,4.9-4.7v-3.3
		c0-0.7-0.1-1.8,0.2-2.4c0.3-0.5,0.8-0.6,1.3-0.7v-0.6c-0.7,0-1.4,0.1-2.1,0.1c-0.7,0-1.3-0.1-2-0.1v0.6c0.5,0.1,1.1,0.2,1.4,0.7
		c0.3,0.5,0.3,1.8,0.3,2.4v3.6c0,2.1-1.2,3.2-3.4,3.2c-2.5,0-3.1-1.3-3.1-3.5v-4.2c0-1.4,0-2.3,1.7-2.2v-0.6c-1.1,0-2.2,0.1-3.3,0.1
		c-0.9,0-1.9-0.1-2.8-0.1v0.6H2.8z M29,177.5h0.9v-8.4c0-0.6,0-1.6,0.3-2.1c0.2-0.5,0.8-0.5,1.3-0.6v-0.6c-0.7,0-1.4,0.1-2.1,0.1
		s-1.3-0.1-2-0.1v0.6c1.7,0.1,1.7,1.3,1.7,2.7v4.6l-7-7.9c-0.7,0-1.3,0.1-2,0.1c-0.6,0-1.1-0.1-1.7-0.1v0.6c1,0.1,1.2,0.4,1.8,1.2v7
		c0,1.2-0.1,1.9-1.6,2.1v0.6c0.7,0,1.3-0.1,2-0.1s1.4,0.1,2.1,0.1v-0.6c-1.7-0.1-1.7-1.4-1.7-2.8v-5.4L29,177.5z M35.9,174.4
		c0,1.4,0.1,2.2-1.7,2.2v0.6c1,0,1.9-0.1,2.9-0.1s2.1,0.1,3.1,0.1v-0.6c-1.7,0-1.7-0.7-1.7-2.1v-5.9c0-1.4-0.1-2.3,1.7-2.2v-0.6
		c-1,0-2.1,0.1-3.1,0.1s-1.9-0.1-2.9-0.1v0.6c1.7,0,1.7,0.8,1.7,2.2V174.4z M73.5,171.3v-3c0-0.2,0-1.4,0.1-1.6
		c0.1-0.2,0.7-0.2,0.8-0.2c1.7,0,2.3,0.8,2.3,2.4c0,1.7-0.9,2.4-2.6,2.4L73.5,171.3L73.5,171.3z M48.6,177.4l3.9-9.2
		c0.4-1.1,0.7-1.8,2-1.9v-0.6c-0.8,0-1.5,0.1-2.3,0.1c-0.7,0-1.4-0.1-2.1-0.1v0.6c0.7,0.1,1.5,0.1,1.5,1c0,0.7-0.5,2-0.8,2.7
		l-1.7,4.2l-2.2-5.8c-0.1-0.3-0.3-0.9-0.3-1.2c0-0.8,0.9-0.8,1.5-0.8v-0.6c-1.1,0-2.1,0.1-3.2,0.1c-1,0-1.9-0.1-2.9-0.1v0.6
		c1.5,0.2,1.4,0.4,2,1.9l3.7,9.2L48.6,177.4L48.6,177.4z M56.4,177.2c1,0,2-0.1,3-0.1c2.4,0,4.9,0.1,7.3,0.1c0-0.5-0.1-0.9-0.1-1.4
		c0-0.7,0.1-1.3,0.1-2H66c-0.4,2-1.2,2.6-3.2,2.6c-2.1,0-2-1-2-2.7v-2c1.6,0,2.1,0.3,2.4,1.9h0.7c0-0.7-0.1-1.5-0.1-2.2
		c0-0.8,0.1-1.6,0.1-2.4h-0.7c-0.1,1.6-1,1.9-2.4,1.9v-3.2c0-0.1,0-0.9,0.1-1c0.1-0.2,1.2-0.2,1.4-0.2c1.7,0,2.7,0.5,3,2.3H66
		l-0.1-3.1c-2.2,0-4.3,0.1-6.5,0.1c-1,0-2-0.1-3-0.1v0.6c1.7-0.1,1.7,0.8,1.7,2.2v5.9c0,1.4,0,2.2-1.7,2.2V177.2z M76.9,171.5
		c1.4-0.2,2.8-1.2,2.8-2.8c0-1.2-0.6-2.2-1.7-2.6c-0.8-0.3-2.1-0.4-2.9-0.4c-1,0-1.9,0.1-2.9,0.1s-2-0.1-3-0.1v0.6
		c1.7-0.1,1.7,0.8,1.7,2.2v5.9c0,1.4,0,2.2-1.7,2.2v0.6c1,0,2-0.1,3-0.1s2,0.1,3,0.1v-0.6c-1.7,0.1-1.7-0.8-1.7-2.2v-2.3
		c0.1,0,0.2,0,0.3,0c0.5,0,1.3,0.8,1.8,1.6l2.5,3.5c0.6,0,1.2-0.1,1.7-0.1c0.6,0,1.2,0.1,1.7,0.1v-0.6c-0.5-0.1-0.8-0.2-1.1-0.6
		c-0.4-0.5-0.8-1-1.2-1.5L76.9,171.5z M84.9,176.2c0.8,0.8,1.9,1.2,3.1,1.2c2.2,0,4.2-1.2,4.2-3.6c0-2.3-1.8-3.1-3.7-3.9
		c-1-0.5-2.3-0.8-2.3-2.1c0-0.9,0.9-1.4,1.7-1.4c1.5,0,2.5,1.2,2.9,2.5h0.8l-0.1-3.1h-0.8l-0.2,0.7c-0.7-0.6-1.7-0.9-2.6-0.9
		c-2,0-3.7,1.2-3.7,3.3c0,1.9,1.3,2.8,2.9,3.5c1.2,0.5,2.9,1,2.9,2.6c0,1.1-1,1.7-2,1.7c-2,0-2.8-1.5-3.3-3H84v3.6h0.8L84.9,176.2z
		 M135.1,177.4c2.1,0,3.8-2.1,3.8-4.3c0-1.5-1-2.7-2.5-2.7c-2.2,0-3.8,2.1-3.8,4.3C132.6,176.3,133.5,177.4,135.1,177.4 M96.7,174.4
		c0,1.4,0.1,2.2-1.7,2.2v0.6c1,0,1.9-0.1,2.9-0.1s2.1,0.1,3.1,0.1v-0.6c-1.7,0-1.7-0.7-1.7-2.1v-5.9c0-1.4-0.1-2.3,1.7-2.2v-0.6
		c-1,0-2.1,0.1-3.1,0.1s-1.9-0.1-2.9-0.1v0.6c1.7,0,1.7,0.8,1.7,2.2V174.4z M115,165.7h-11.4l-0.1,3.3h0.8c0.3-1.5,0.9-2.6,2.7-2.4
		c1.1,0.1,1.1,0,1.1,1.3v6.6c0,1.6,0,2.2-1.8,2.2v0.6c1,0,2.1-0.1,3.1-0.1s2.1,0.1,3.1,0.1v-0.6c-1.8,0.1-1.8-0.6-1.8-2.2v-6.6
		c0-1.4-0.1-1.3,1.1-1.3c1.5,0,2.4,1,2.6,2.4h0.8L115,165.7z M124.3,172.5l3-5c0.4-0.6,0.7-1.2,1.5-1.2v-0.6c-0.7,0-1.4,0.1-2.1,0.1
		c-0.6,0-1.2-0.1-1.8-0.1v0.6c0.6,0,1.3,0.1,1.3,0.9c0,0.5-0.4,1.3-0.7,1.7l-1.7,2.8l-1.8-3.1c-0.2-0.3-0.6-1.1-0.6-1.4
		c0-0.7,0.9-0.7,1.3-0.8v-0.6c-1,0-2,0.1-3,0.1c-0.9,0-1.8-0.1-2.7-0.1v0.6c0.9,0.2,1,0.4,1.5,1.2l3.1,5.4v1.5c0,1.5,0,2.2-1.7,2.2
		v0.6c0.9,0,1.9-0.1,2.8-0.1c1.1,0,2.2,0.1,3.3,0.1v-0.6c-1.8,0.1-1.7-0.7-1.7-2.2L124.3,172.5L124.3,172.5z M167.6,175.1
		c-0.5,0.6-1.2,1.5-2,1.5c-0.6,0-1-0.6-1-1.2c0-0.3,0-0.6,0.1-0.9c1.3-0.3,4-0.9,4-2.7c0-1-1.1-1.3-1.8-1.3c-2.3,0-4,2.3-4,4.6
		c0,1.4,0.8,2.3,2.2,2.3c1.3,0,2.3-1,3-2L167.6,175.1z M136.4,171c0.5,0,0.8,0.5,0.8,1c0,1.1-0.8,4.9-2.2,4.9
		c-0.6,0-0.8-0.6-0.8-1.1c0-0.9,0.3-2,0.6-2.8C135.1,172.2,135.5,171,136.4,171 M143.1,171.3h1.4l0.2-0.6h-1.4
		c0.2-0.8,0.3-1.7,0.6-2.5c0.1-0.3,0.3-0.8,0.7-0.8c0.6,0,0.4,1.1,1.3,1.1c0.4,0,0.7-0.4,0.7-0.8c0-0.8-0.9-1-1.5-1
		c-2.1,0-3,2.2-3.5,4h-1.3l-0.2,0.6h1.3l-1.3,6c-0.2,0.9-0.4,1.8-0.6,2.7c-0.1,0.3-0.2,0.8-0.5,0.8s-0.3-0.3-0.3-0.5
		c0-0.4-0.2-0.7-0.7-0.7c-0.4,0-0.7,0.4-0.7,0.8c0,0.7,0.7,1.1,1.3,1.1c1.7,0,2.4-1.6,2.9-3.1L143.1,171.3z M153.1,168.3h-1.5
		l-0.8,2.5h-1.2l-0.1,0.6h1.2l-0.6,2.4c-0.2,0.7-0.5,1.7-0.5,2.3c0,0.7,0.5,1.2,1.2,1.2c1.2,0,2-1.4,2.4-2.3l-0.3-0.2l-0.1,0.2
		c-0.2,0.4-0.7,1.3-1.2,1.3c-0.3,0-0.3-0.3-0.3-0.5c0-0.4,0.3-1.4,0.4-1.8l0.7-2.7h1.4l0.2-0.6h-1.4L153.1,168.3z M154,177.2h1.6
		l0.6-2.1c0.3-0.8,0.6-1.7,1-2.4c0.3-0.4,0.9-1.2,1.4-1.2c0.3,0,0.5,0.2,0.5,0.5s-0.2,0.9-0.3,1.2l-0.5,1.6
		c-0.2,0.5-0.3,1.1-0.3,1.6c0,0.6,0.5,1.1,1.1,1.1c1.2,0,2.1-1.4,2.5-2.4l-0.3-0.1c-0.2,0.4-0.7,1.5-1.2,1.5c-0.2,0-0.3-0.2-0.3-0.4
		s0.2-0.8,0.3-1.1l0.5-1.6c0.2-0.5,0.3-1.1,0.3-1.5c0-0.8-0.5-1.4-1.3-1.4c-1.2,0-2.2,1.1-2.6,2.1l1.5-5.8l-3.1,0.2l-0.1,0.5
		c0.4,0,1.1,0,1.1,0.5c0,0.4-0.3,1.6-0.4,2L154,177.2z M164.9,174c0.2-0.9,0.8-3.1,1.9-3.1c0.4,0,0.6,0.3,0.6,0.6
		C167.3,172.8,165.9,173.6,164.9,174"/>
	<rect x="41.4" y="17.3" class="st2" width="87.8" height="32.1"/>
	<rect x="41.4" y="17.3" class="st3" width="87.8" height="32.1"/>
	<path class="st1" d="M28.2,3.9v73.4c0,7.5,0,11.6,3.4,18.1c6.2,11.6,17.8,18.6,32.1,26.8c7.7,4.4,13.4,7.8,21.6,13.3
		c8.2-5.4,13.9-8.8,21.6-13.3c14.3-8.2,25.9-15.2,32.1-26.8c3.4-6.5,3.4-10.6,3.4-18.1V3.9H28.2 M41.4,17.3h87.8v32.1H41.4V17.3z"/>
	<g>
		<path class="st0" d="M114.6,95.3V94h-1.3v-1.3H112L111.8,77h0.6v-0.8h0.6v-1.9h-1.1v-5.4h1.7v-1.5l1.5-0.8v-2l-29.6-7.2l-29.6,7.2
			v2l1.5,0.8v1.5h1.7v5.4H58v1.9h0.7V77h0.6l-0.1,15.5h-1.3v1.3h-1.3v1.3h-1.3V97h60.6v-1.7H114.6z M112,75.5c0,0.2-0.2,0.4-0.4,0.4
			h-3.4c-0.2,0-0.4-0.2-0.4-0.4c-0.1-0.2,0.1-0.4,0.4-0.4h3.4C111.8,75.1,112,75.3,112,75.5z M111.1,77.2v15c0,0.2-0.2,0.4-0.4,0.4
			s-0.4-0.2-0.4-0.4v-15c0-0.2,0.2-0.4,0.4-0.4S111.1,77,111.1,77.2z M109.4,77.2v15c0,0.2-0.2,0.4-0.4,0.4s-0.4-0.2-0.4-0.4v-15
			c0-0.2,0.2-0.4,0.4-0.4S109.4,77,109.4,77.2z M101,76.8c0.2,0,0.4,0.2,0.4,0.4v15c0,0.2-0.2,0.4-0.4,0.4s-0.4-0.2-0.4-0.4v-15
			C100.5,77,100.7,76.8,101,76.8z M98.4,75.9c-0.2,0-0.4-0.2-0.4-0.4s0.2-0.4,0.4-0.4h3.4c0.2,0,0.4,0.2,0.4,0.4s-0.2,0.4-0.4,0.4
			H98.4z M99.3,76.8c0.2,0,0.4,0.2,0.4,0.4v15c0,0.2-0.2,0.4-0.4,0.4c-0.2,0-0.4-0.2-0.4-0.4v-15C98.8,77,99,76.8,99.3,76.8z
			 M88.7,75.9c-0.2,0-0.4-0.2-0.4-0.4s0.2-0.4,0.4-0.4h3.4c0.2,0,0.4,0.2,0.4,0.4s-0.2,0.4-0.4,0.4H88.7z M91.6,77.2v15
			c0,0.2-0.2,0.4-0.4,0.4s-0.4-0.2-0.4-0.4v-15c0-0.2,0.2-0.4,0.4-0.4S91.6,77,91.6,77.2z M89.9,77.2v15c0,0.2-0.2,0.4-0.4,0.4
			s-0.4-0.2-0.4-0.4v-15c0-0.2,0.2-0.4,0.4-0.4S89.9,77,89.9,77.2z M79,75.9c-0.2,0-0.4-0.2-0.4-0.4c-0.1-0.2,0.1-0.4,0.4-0.4h3.4
			c0.2,0,0.4,0.2,0.4,0.4s-0.2,0.4-0.4,0.4H79z M81.9,77.2v15c0,0.2-0.2,0.4-0.4,0.4s-0.4-0.2-0.4-0.4v-15c0-0.2,0.2-0.4,0.4-0.4
			S81.9,77,81.9,77.2z M80.2,77.2v15c0,0.2-0.2,0.4-0.4,0.4c-0.2,0-0.4-0.2-0.4-0.4v-15c0-0.2,0.2-0.4,0.4-0.4S80.2,77,80.2,77.2z
			 M71.8,76.8c0.2,0,0.4,0.2,0.4,0.4v15c0,0.2-0.2,0.4-0.4,0.4c-0.2,0-0.4-0.2-0.4-0.4v-15C71.3,77,71.5,76.8,71.8,76.8z M69.2,75.9
			c-0.2,0-0.4-0.2-0.4-0.4s0.2-0.4,0.4-0.4h3.4c0.2,0,0.4,0.2,0.4,0.4s-0.2,0.4-0.4,0.4H69.2z M70.1,76.8c0.2,0,0.4,0.2,0.4,0.4v15
			c0,0.2-0.2,0.4-0.4,0.4c-0.2,0-0.4-0.2-0.4-0.4v-15C69.6,77,69.8,76.8,70.1,76.8z M111.1,72.2v2.1H59.9v-2.1H111.1z M59.9,70.9
			v-1.7c0-0.2,0.2-0.4,0.4-0.4s0.4,0.2,0.4,0.4v1.7c0,0.2-0.2,0.4-0.4,0.4S59.9,71.1,59.9,70.9z M61.6,70.9v-1.7
			c0-0.2,0.2-0.4,0.4-0.4s0.4,0.2,0.4,0.4v1.7c0,0.2-0.2,0.4-0.4,0.4S61.6,71.1,61.6,70.9z M64.4,70.9v-1.7c0-0.2,0.1-0.4,0.4-0.4
			h2.5c0.2,0,0.4,0.2,0.4,0.4v1.7c0,0.2-0.2,0.4-0.4,0.4h-2.5C64.6,71.3,64.4,71.1,64.4,70.9z M70.1,68.8c0.2,0,0.4,0.2,0.4,0.4v1.7
			c0,0.2-0.2,0.4-0.4,0.4c-0.2,0-0.4-0.2-0.4-0.4v-1.7C69.6,69,69.8,68.8,70.1,68.8z M71.8,68.8c0.2,0,0.4,0.2,0.4,0.4v1.7
			c0,0.2-0.2,0.4-0.4,0.4c-0.2,0-0.4-0.2-0.4-0.4v-1.7C71.3,69,71.5,68.8,71.8,68.8z M74.1,70.9v-1.7c0-0.2,0.2-0.4,0.4-0.4H77
			c0.2,0,0.4,0.2,0.4,0.4v1.7c0,0.2-0.2,0.4-0.4,0.4h-2.5C74.3,71.3,74.1,71.1,74.1,70.9z M79.4,70.9v-1.7c0-0.2,0.2-0.4,0.4-0.4
			s0.4,0.2,0.4,0.4v1.7c0,0.2-0.2,0.4-0.4,0.4C79.6,71.3,79.4,71.1,79.4,70.9z M81.1,70.9v-1.7c0-0.2,0.2-0.4,0.4-0.4
			s0.4,0.2,0.4,0.4v1.7c0,0.2-0.2,0.4-0.4,0.4S81.1,71.1,81.1,70.9z M83.8,70.9v-1.7c0-0.2,0.2-0.4,0.4-0.4h2.5
			c0.2,0,0.4,0.2,0.4,0.4v1.7c0,0.2-0.2,0.4-0.4,0.4h-2.5C84,71.3,83.8,71.1,83.8,70.9z M89.1,70.9v-1.7c0-0.2,0.2-0.4,0.4-0.4
			s0.4,0.2,0.4,0.4v1.7c0,0.2-0.2,0.4-0.4,0.4S89.1,71.1,89.1,70.9z M90.8,70.9v-1.7c0-0.2,0.2-0.4,0.4-0.4s0.4,0.2,0.4,0.4v1.7
			c0,0.2-0.2,0.4-0.4,0.4S90.8,71.1,90.8,70.9z M93.6,70.9v-1.7c0-0.2,0.1-0.4,0.4-0.4h2.5c0.2,0,0.4,0.2,0.4,0.4v1.7
			c0,0.2-0.2,0.4-0.4,0.4H94C93.8,71.3,93.6,71.1,93.6,70.9z M99.3,68.8c0.2,0,0.4,0.2,0.4,0.4v1.7c0,0.2-0.2,0.4-0.4,0.4
			c-0.2,0-0.4-0.2-0.4-0.4v-1.7C98.8,69,99,68.8,99.3,68.8z M101,68.8c0.2,0,0.4,0.2,0.4,0.4v1.7c0,0.2-0.2,0.4-0.4,0.4
			s-0.4-0.2-0.4-0.4v-1.7C100.5,69,100.7,68.8,101,68.8z M103.3,70.9v-1.7c0-0.2,0.2-0.4,0.4-0.4h2.5c0.2,0,0.4,0.2,0.4,0.4v1.7
			c0,0.2-0.2,0.4-0.4,0.4h-2.5C103.5,71.3,103.3,71.1,103.3,70.9z M108.6,70.9v-1.7c0-0.2,0.2-0.4,0.4-0.4s0.4,0.2,0.4,0.4v1.7
			c0,0.2-0.2,0.4-0.4,0.4S108.6,71.1,108.6,70.9z M110.3,70.9v-1.7c0-0.2,0.2-0.4,0.4-0.4s0.4,0.2,0.4,0.4v1.7
			c0,0.2-0.2,0.4-0.4,0.4S110.3,71.1,110.3,70.9z M64,76h0.8v-0.8h2.5V76h0.9v0.8H69l-0.2,15.9h-5.5l-0.2-15.9H64V76z M73.8,76.7
			v-0.8h0.8v-0.8h2.5v0.8h0.8v0.8h0.8l-0.2,15.9H73l-0.1-15.9H73.8z M83.4,76.7v-0.8h0.8v-0.8h2.6v0.8h0.9v0.8h0.8l-0.2,15.9h-5.5
			l-0.2-15.9H83.4z M93.2,76.7v-0.8H94v-0.8h2.5v0.8h0.8v0.8h0.8L98,92.6h-5.5l-0.2-15.9H93.2z M102.9,76.8V76h0.8v-0.8h2.5V76h0.8
			v0.8h0.8l-0.2,15.9h-5.5L102,76.8H102.9z M57,65.7c-0.1-0.3,0.1-0.5,0.5-0.6l28-6.9l28,6.9c0.3,0.1,0.6,0.3,0.5,0.6
			c-0.1,0.3-0.4,0.4-0.8,0.3l-27.7-6.8L57.8,66C57.5,66.1,57.1,66,57,65.7z M85.5,61.1l-19.7,4.8h-3.5l23.2-5.7l23.2,5.7h-3.5
			L85.5,61.1z M101.4,65.9H69.7l15.8-3.8L101.4,65.9z M58.8,67.9c-0.3,0-0.6-0.3-0.6-0.6s0.3-0.6,0.6-0.6h53.3
			c0.4,0,0.6,0.3,0.6,0.6s-0.3,0.6-0.6,0.6H58.8z M59.1,75.5c0-0.2,0.2-0.4,0.4-0.4h3.4c0.2,0,0.4,0.2,0.4,0.4s-0.2,0.4-0.4,0.4
			h-3.4C59.3,75.9,59.1,75.7,59.1,75.5z M62.4,77.2v15c0,0.2-0.2,0.4-0.4,0.4s-0.4-0.2-0.4-0.4v-15c0-0.2,0.2-0.4,0.4-0.4
			S62.4,77,62.4,77.2z M60.7,77.2v15c0,0.2-0.2,0.4-0.4,0.4s-0.4-0.2-0.4-0.4v-15c0-0.2,0.2-0.4,0.4-0.4S60.7,77,60.7,77.2z
			 M58.4,93.2h54.2v0.6H58.4V93.2z M57.2,94.5h56.7v0.6H57.2V94.5z M115.2,96.4H55.9v-0.6h59.3V96.4z"/>
	</g>
	<path class="st0" d="M86.5,14.9c3.9-5.9,9-3.1,9-3.1c-1.4,1-4.5,0.5-5.5,1.9c1.8-1,4.3,0.3,6.9-1.1c-0.1,0,1.4,0.5,1.4,0.5
		c-1,0.7-2,1.2-3.5,1.8C91.7,15.9,88.7,13.7,86.5,14.9 M87.4,6.4c4.8,0,6.9,2.4,6.9,2.4h-2c-0.8-0.7-2.4-1.1-3-1.4
		c0.5,0.9,1.6,1,2,1.7L90,9.6C88.9,9.2,87.9,7.5,87.4,6.4 M86.5,7.3C79.7,4.9,77,8,77,8l2,0.4c0.9-0.5,2.6-0.6,3.2-0.8
		c-0.6,0.8-1.7,0.7-2.3,1.3l1.2,0.7C82.8,9.2,84,7.6,86.5,7.3 M76.7,6.7c-1,0-2.5-0.4-4.9-0.2c-2.3,0.2-4.4,2.9-4.4,2.9l0.5,0.2
		c1.6-1.3,4.8-1.6,5.7-2c-1,1.2-4.1,1.7-4.5,2.4C70.7,11.8,75.3,8.4,76.7,6.7 M72.1,14.7c-3.3-3.8-7.4-4.1-7.4-4.1l-1.2,0.2
		c0.5,0.8,3.9,2.2,4.8,2.8c-1.2,0.2-4.7-1.1-6-2.4L61,11.6c1.7,2,4.3,3.1,6.4,3C69.2,14.5,70,15.3,72.1,14.7 M66.9,6.6
		C64.8,6,60.7,5.1,56.1,9.5c0,0,1.3-0.2,2.2,0.1c0.4-0.4,3.8-2.4,5.9-2.3c-1.8,0.7-3.9,1.9-4.4,2.4c0,0,1.9,0.3,2.5,0.1
		C62.7,9.7,65,9.2,66.9,6.6 M61.3,14.5c-2.2-2.3-5.1-3.2-6.6-3.3c-1.4,0-2.6,0.3-2.6,0.3c1.1,1.2,3.4,1,5.6,1.9
		c-2.6-0.3-5,0.1-7.1-1.6c-1,0.3-1.7,0.3-1.6,0.3C53.1,15.8,58.2,14,61.3,14.5 M48.9,10.2c4.1,0.9,5.5-2.8,6.8-3.4
		c-6.4-0.8-10,1.9-10.3,2.7c0,0,1.1,0,1.7,0.4c2.1-0.9,3-2.1,5.7-2C50.8,8.3,48.9,10.2,48.9,10.2L48.9,10.2z M50.1,14.7
		c-3.6-1.7-6.1-5-10.9-3.8c3.1,0.8,4.1,2.4,7.2,3c-2.5,0.5-5.2-1.9-7.9-1.8c0.8,0.9,2.9,3.5,6.7,2.9C47.1,14.8,48.1,14.7,50.1,14.7
		 M45.7,7.3C41.4,5.2,34.9,6.9,35,7.5c0,0,0.2,0.1,0.3,0.3c0.9-0.6,6.1-0.3,7.3-0.5c-0.9,0.8-6.6,0.8-6.5,1.5
		C39.8,10,43.9,8.1,45.7,7.3 M31.7,6.9c-2.1,3.8-1.7,7.5-0.1,9.1c-0.7-3.6-0.2-5.1,0.1-6.1c-0.2,1.2,0,4.3,0.5,5.3
		C33.8,12.8,32.6,8.8,31.7,6.9 M34.6,9.3c0.2,2.2-0.1,3.8-0.5,5.6c-0.5,1.8-1.5,3.5-0.5,5.3c0.5-2.2,2.7-2.8,2.2-6.6
		c1.9,4.1-1.5,5.4-0.9,8.4C40.3,15.5,35.8,11.3,34.6,9.3 M39,19.1c-1.2,2.8-4.3,4.6-3.3,7.5c0.9-0.1,1.9-3.1,2.5-4.3
		c-0.1,1.7-0.7,4.3-2.3,5.9c0.1,0.7,0,1.5,0,1.5C37.8,28.7,40.3,24.4,39,19.1 M34.1,30.2c1.3-6.7-2.3-7.6-3.2-10.7
		c-1,2.3-1.5,9.4,2.2,11.3c-2-3.6-0.7-5.7-1.4-7.6C33.1,24.4,32.1,27.8,34.1,30.2 M39.5,29c-2.4,2.2-4.5,6.2-3,9.1
		c1.7-2.4,0.1-3.3,1.9-5.2c-1,2.2,0.6,3.8-1.5,6.6c-0.5,0.6-0.5,2.7-0.5,2.7s2.9-2.9,3.2-6.1C39.8,33.1,38.7,32.1,39.5,29
		 M30.8,31.2c0.9,2.3-1.5,5.1,3.1,9.6c0.3-2.1-2.4-4.4-1.8-6.2c0.6,2.5,2.7,2.9,3,6.2C35.7,38,34.1,33.6,30.8,31.2 M30.3,38.3
		c-0.8,2.9-0.2,8.4,2.5,10.8c0.5-3.1-1.8-4.4-1.5-6.8c0.5,1.9,2.1,2.4,2.5,4.7c0.7-1.1,1.1-2.5,0.2-3.7
		C33.3,42.5,31.5,41.4,30.3,38.3 M38.7,43.1c-0.4,0.9-3.6,3.5-3.9,6.4c-0.2,2.3,1,4.4,1,4.4c-0.9-3.7,1.1-4.6,1.8-6.9
		c0.3,1.6-1.7,3.5-0.9,5.9C38.6,51.1,39.9,48.2,38.7,43.1 M30.5,49c-0.4,4.2,0.3,8,2.7,10.4c0.4-3.1-2.2-4.4-1.3-7.2
		c0.2,2.2,2.6,5,2.5,6.4C36.7,55.3,31.9,50.9,30.5,49 M34.4,65.2c-0.3,2.7-4.9,6.9-2.4,11.5c-0.4-4.6,1.3-5.4,2-6.9
		c0.6,2-2,3-0.8,8.2C33.2,74,37.4,69.4,34.4,65.2 M38.3,55.1c-0.7,2-3.5,4.3-3.7,6c-0.1,0.9,0.1,1.7,0.9,2.7
		c0.3-2.8,1.9-2.5,2.2-5.3c0.8,2.8-1.2,3.6-1.5,6.2c0,0,0.7,1.2,1,2.4C40.7,63.4,39.3,57.6,38.3,55.1 M30.7,58.3
		c-1.1,4.5-0.7,8.3,0.5,10.5c0.3-1.1,0.7-1.6,0.7-1.6c-0.3-0.7-1-4.7-0.6-5.5c0.3,1.5,0.5,2.8,1.1,4.8
		C34.5,62.7,31.3,59.8,30.7,58.3 M39,68.9c-1.3,4.1-5.3,5.3-4.4,11.8c0.7-2.9,3.2-4.2,3.3-7.3c0.6,3.5-2.3,5.6-2.2,8.9
		C38.9,79.7,40.3,74.5,39,68.9 M31,77.4c-1,3.7-0.6,9.4,2.3,11.8c0.3-1.3-2-6.1-1.2-7.8c-0.4,2,2.5,5.6,2,6.3
		C36.4,84,31.7,80,31,77.4 M39.3,80.3c-0.8,4.4-4.5,5.1-3.4,10.2c0.7-2.8,2.3-3.2,2.6-5.2c0.5,2.1-1.9,4.1-1.6,6.6
		C37.8,91.8,41.2,86.7,39.3,80.3 M41,89.9c-1.6,4.7-1.3,8.6,0.7,9.4c1.2-1.9-0.9-4.6-0.1-6.1c-0.1,1.4,2.4,4.8,1.3,6.3
		c0.1,0,1,0.2,1.7,0.5C46.4,94.9,41.7,92.7,41,89.9 M32.8,90.5c-0.4,3.8,3.7,8,6.5,8.5c0,0-0.4-0.7-0.5-1.6
		c-1.2-0.5-2.8-1.7-3.6-3.5c0.9,1,2.3,2.1,3.5,2.4c0,0-0.1-1,0-1.5C37.9,93,34.3,93.1,32.8,90.5 M38,100.1c1.4,3.6,6.2,5.2,9.3,5.3
		c0,0-0.2-0.5-0.6-1.3c-1.4-0.3-4.4-0.9-5.8-2.3c1.2,0.7,4,1.4,5.4,1.3C44.4,100.4,40.5,101.4,38,100.1 M47.1,98.2
		c0.3,7,2.8,8.3,6.3,9.6c-0.6-2.7-3.4-3.1-4.1-6.1c1.3,2.7,4.1,2.8,5.1,5.5C54.3,101.3,48.7,100.6,47.1,98.2 M46.6,106.8
		c1.3,2.9,5.9,7,8.4,5.8c-1.2-1.9-3-1.3-5.1-3.5c2.5,1.7,4.8,0.9,6.1,3.2c0.6-0.3,1.2-0.5,1.2-0.5C55.1,107.2,49.8,109,46.6,106.8
		 M56.3,105c0.3,3.4,0.7,6.3,4.1,6.5c-0.6-2.2-2.2-2.2-2.5-3.8c0.9,1.5,2.6,1,3.6,3.8c0.7,0,1.3,0.3,1.3,0.3
		C61.9,107.2,58,107.4,56.3,105 M55.3,113.9c3.1,2.2,8.1,2.6,10.6,1.9c-3.8-0.8-4.5-1.6-7.4-1.5c2.5-0.8,5,0.5,7.7,0.5
		C62.1,110.6,57.2,113.9,55.3,113.9 M66.1,111.5c1.1,3.7,3.3,6.7,7.1,8.5c-2.4-3-2.4-4.1-4.4-5.8c3,1.5,3.5,3.6,5.8,5.4
		C73.4,113,67.6,112.7,66.1,111.5 M61,117.7c2.7,2.6,6.7,4.3,10.3,2.7c-4.1-0.5-4.8-1.8-7.5-1.9c1.7-0.5,4.2,0.5,5.3,0.4
		c-0.6-0.4-0.8-0.9-0.8-0.9C65.9,116.7,62.7,117.4,61,117.7 M75.5,117.2c0.4,3.2,2.5,6.6,7.2,9c-0.4-2.1-3.5-3.7-4.6-6.3
		c1.6,2.1,5.3,3.4,6,7.4C85.3,120.1,77.4,119.1,75.5,117.2 M69.8,122.7c4.3,0.5,5.7,5.1,14.3,8.1c-0.6-1.3-1.2-2.4-2.3-3.4
		c-5.9-1.8-7.4-4.3-8.6-4.6c1.9-0.1,3,1.5,4.5,1.7C75,120.6,71,121.9,69.8,122.7 M93.9,6.7c1,0,2.5-0.4,4.9-0.2
		c2.4,0.2,4.4,2.9,4.4,2.9l-0.5,0.2c-1.6-1.3-4.8-1.6-5.7-2c1,1.2,4.1,1.7,4.5,2.4C99.8,11.8,95.2,8.4,93.9,6.7 M98.4,14.7
		c3.3-3.8,7.4-4.1,7.4-4.1l1.2,0.2c-0.5,0.8-3.9,2.2-4.8,2.8c1.2,0.2,4.7-1.1,6-2.4l1.3,0.4c-1.7,2-4.3,3.1-6.4,3
		C101.3,14.5,100.6,15.3,98.4,14.7 M103.6,6.6c2.1-0.6,6.2-1.5,10.8,2.9c0,0-1.3-0.2-2.2,0.1c-0.4-0.4-3.8-2.4-5.9-2.3
		c1.8,0.7,3.9,1.9,4.4,2.4c0,0-1.9,0.3-2.5,0.1C107.9,9.7,105.5,9.2,103.6,6.6 M109.2,14.5c2.2-2.3,5.1-3.2,6.6-3.3
		c1.4,0,2.6,0.3,2.6,0.3c-1.1,1.2-3.4,1-5.6,1.9c2.6-0.3,5,0.1,7.1-1.6c1,0.3,1.7,0.3,1.6,0.3C117.5,15.8,112.3,14,109.2,14.5
		 M121.6,10.2c-4.1,0.9-5.5-2.8-6.8-3.4c6.4-0.8,10,1.9,10.3,2.7c0,0-1.1,0-1.7,0.4c-2.1-0.9-3-2.1-5.7-2
		C119.8,8.3,121.6,10.2,121.6,10.2L121.6,10.2z M120.5,14.7c3.6-1.7,6.1-5,10.9-3.8c-3.1,0.8-4.1,2.4-7.2,3c2.5,0.5,5.2-1.9,7.9-1.8
		c-0.8,0.9-2.9,3.5-6.7,2.9C123.5,14.8,122.4,14.7,120.5,14.7 M124.9,7.3c4.3-2.1,10.7-0.4,10.7,0.2c0,0-0.2,0.1-0.3,0.3
		c-0.9-0.6-6.1-0.3-7.3-0.5c0.9,0.8,6.6,0.8,6.5,1.5C130.8,10,126.6,8.1,124.9,7.3 M139,6.9c2.1,3.8,1.7,7.5,0.1,9.1
		c0.7-3.6,0.2-5.1-0.1-6.1c0.2,1.2,0,4.3-0.5,5.3C137,12.8,138.2,8.8,139,6.9 M136.1,9.3c-0.2,2.2,0.1,3.8,0.5,5.6
		c0.5,1.8,1.4,3.5,0.5,5.3c-0.5-2.2-2.7-2.8-2.2-6.6c-1.9,4.1,1.5,5.4,0.9,8.4C130.5,15.5,135,11.3,136.1,9.3 M131.8,19.1
		c1.2,2.8,4.3,4.6,3.3,7.5c-0.9-0.1-1.9-3.1-2.5-4.3c0.1,1.7,0.7,4.3,2.3,5.9c-0.1,0.7,0,1.5,0,1.5
		C132.9,28.7,130.4,24.4,131.8,19.1 M136.7,30.2c-1.3-6.7,2.3-7.6,3.2-10.7c1,2.3,1.5,9.4-2.2,11.3c2-3.6,0.7-5.7,1.4-7.6
		C137.7,24.4,138.6,27.8,136.7,30.2 M131.3,29c2.4,2.2,4.5,6.2,3,9.1c-1.7-2.4-0.2-3.3-1.9-5.2c1,2.2-0.6,3.8,1.6,6.6
		c0.5,0.6,0.5,2.7,0.5,2.7s-2.9-2.9-3.2-6.1C130.9,33.1,132.1,32.1,131.3,29 M140,31.2c-0.9,2.3,1.5,5.1-3.1,9.6
		c-0.3-2.1,2.4-4.4,1.8-6.2c-0.6,2.5-2.7,2.9-3,6.2C135.1,38,136.7,33.6,140,31.2 M140.5,38.3c0.8,2.9,0.2,8.4-2.5,10.8
		c-0.5-3.1,1.8-4.4,1.5-6.8c-0.5,1.9-2.1,2.4-2.5,4.7c-0.7-1.1-1.1-2.5-0.2-3.7C137.5,42.5,139.3,41.4,140.5,38.3 M132.1,43.1
		c0.4,0.9,3.6,3.5,3.9,6.4c0.2,2.3-1,4.4-1,4.4c0.9-3.7-1.1-4.6-1.8-6.9c-0.3,1.6,1.7,3.5,0.9,5.9C132.1,51.1,130.9,48.2,132.1,43.1
		 M140.2,49c0.4,4.2-0.3,8-2.7,10.4c-0.4-3.1,2.2-4.4,1.3-7.2c-0.2,2.2-2.6,5-2.5,6.4C134.1,55.3,138.9,50.9,140.2,49 M136.4,65.2
		c0.3,2.7,4.9,6.9,2.4,11.5c0.4-4.6-1.3-5.4-2-6.9c-0.6,2,2,3,0.8,8.2C137.5,74,133.4,69.4,136.4,65.2 M132.5,55.1
		c0.7,2,3.5,4.3,3.7,6c0.1,0.9-0.1,1.7-0.9,2.7c-0.3-2.8-1.9-2.5-2.2-5.3c-0.8,2.8,1.2,3.6,1.5,6.2c0,0-0.7,1.2-1,2.4
		C130.1,63.4,131.4,57.6,132.5,55.1 M140.1,58.3c1.1,4.5,0.7,8.3-0.5,10.5c-0.3-1.1-0.7-1.6-0.7-1.6c0.3-0.7,1-4.7,0.6-5.5
		c-0.3,1.5-0.5,2.8-1.1,4.8C136.2,62.7,139.5,59.8,140.1,58.3 M131.8,68.9c1.3,4.1,5.3,5.3,4.4,11.8c-0.7-2.9-3.2-4.2-3.3-7.3
		c-0.6,3.5,2.3,5.6,2.3,8.9C131.8,79.7,130.5,74.5,131.8,68.9 M139.7,77.4c1,3.7,0.6,9.4-2.2,11.8c-0.3-1.3,2-6.1,1.2-7.8
		c0.4,2-2.5,5.6-2,6.3C134.4,84,139.1,80,139.7,77.4 M131.5,80.3c0.8,4.4,4.5,5.1,3.4,10.2c-0.7-2.8-2.3-3.2-2.6-5.2
		c-0.5,2.1,1.9,4.1,1.6,6.6C133,91.8,129.5,86.7,131.5,80.3 M129.7,89.9c1.6,4.7,1.3,8.6-0.7,9.4c-1.2-1.9,0.9-4.6,0.1-6.1
		c0.1,1.4-2.4,4.8-1.3,6.3c-0.1,0-1,0.2-1.7,0.5C124.4,94.9,129.1,92.7,129.7,89.9 M137.9,90.5c0.4,3.8-3.7,8-6.5,8.5
		c0,0,0.4-0.7,0.5-1.6c1.2-0.5,2.8-1.7,3.6-3.5c-0.9,1-2.3,2.1-3.5,2.4c0,0,0.1-1,0-1.5C132.9,93,136.5,93.1,137.9,90.5
		 M132.7,100.1c-1.4,3.6-6.2,5.2-9.3,5.3c0,0,0.2-0.5,0.6-1.3c1.4-0.3,4.4-0.9,5.8-2.3c-1.2,0.7-4,1.4-5.4,1.3
		C126.4,100.4,130.3,101.4,132.7,100.1 M123.6,98.2c-0.3,7-2.8,8.3-6.3,9.6c0.6-2.7,3.4-3.1,4.1-6.1c-1.3,2.7-4.1,2.8-5.1,5.5
		C116.5,101.3,122,100.6,123.6,98.2 M124.2,106.8c-1.3,2.9-5.9,7-8.4,5.8c1.2-1.9,3-1.3,5.1-3.5c-2.5,1.7-4.8,0.9-6.1,3.2
		c-0.6-0.3-1.2-0.5-1.2-0.5C115.6,107.2,121,109,124.2,106.8 M114.4,105c-0.3,3.4-0.7,6.3-4.1,6.5c0.6-2.2,2.2-2.2,2.5-3.8
		c-0.9,1.5-2.6,1-3.6,3.8c-0.7,0-1.3,0.3-1.3,0.3C108.9,107.2,112.8,107.4,114.4,105 M115.5,113.9c-3.2,2.2-8.1,2.6-10.6,1.9
		c3.8-0.8,4.5-1.6,7.4-1.5c-2.5-0.8-5,0.5-7.7,0.5C108.7,110.6,113.5,113.9,115.5,113.9 M104.7,111.5c-1.1,3.7-3.3,6.7-7.2,8.5
		c2.4-3,2.4-4.1,4.4-5.8c-3,1.5-3.5,3.6-5.8,5.4C97.4,113,103.2,112.7,104.7,111.5 M109.7,117.7c-2.7,2.6-6.7,4.3-10.3,2.7
		c4.1-0.5,4.8-1.8,7.5-1.9c-1.7-0.5-4.2,0.5-5.3,0.4c0.6-0.4,0.8-0.9,0.8-0.9C104.8,116.7,108,117.4,109.7,117.7 M95.3,117.2
		c-0.4,3.2-2.5,6.6-7.2,9c0.4-2.1,3.5-3.7,4.6-6.3c-1.6,2.1-5.3,3.4-6,7.4C85.5,120.1,93.4,119.1,95.3,117.2 M101,122.7
		c-4.3,0.5-5.7,5.1-14.3,8.1c0.6-1.3,1.2-2.4,2.3-3.4c5.9-1.8,7.4-4.3,8.6-4.6c-1.9-0.1-3,1.5-4.5,1.7
		C95.7,120.6,99.7,121.9,101,122.7 M83.4,14.9c-3.9-5.9-9-3.1-9-3.1c1.4,1,4.5,0.5,5.5,1.9c-1.8-1-4.3,0.3-6.9-1.1
		c0.1,0-1.4,0.5-1.4,0.5c1,0.7,2,1.2,3.5,1.8C78.1,15.9,81.2,13.7,83.4,14.9 M88.7,10.9c-4.8-2.5-6.6,0-6.6,0l1.1,1
		c1.4-0.2,2.3-1.7,3.8-0.9c-1,0.2-2,1.3-3.4,1.4l0.9,1.5C85.9,14.2,87.1,11.4,88.7,10.9"/>
	<g>
		<path class="st1" d="M99.8,32c-0.1-1-1.1-1.6-1.2-0.9c-0.5,3-3.9,4.4-5.4,5.9c-1.1,1.1-1.4,1.7-2.3,3.1c-0.3,0.6-2.2,0.5-2.2,0.5
			s-0.2-1.3,0.6-1.8c3.3-2,4.3-3.1,5.9-6.2c1-2,2-4.4,0.6-6.4c-0.1-1.2-0.4-1.5-0.7-2.5c-1.1,0.1-1.7,1.2-1.7,1.2s-0.6-2.3-1.4-3.3
			c-1.3,0.5-2.2,1.9-2.2,1.9s-0.6-1.8-1.7-2.9c-1.4,0.5-2.3,1.8-2.3,1.8s-0.8-1-2-1.8c-1.4,1-2.1,2.3-2.1,2.3S81,22,79.6,21.5
			c-0.8,1-1.2,2.6-1.2,2.6s-0.7-0.9-1.4-1.2c-0.8,0.5-0.4,2.3-0.8,2.3c-3.8,5,3.5,11.9,6.3,13.8c0.9,0.6,0.7,1.9,0.7,1.9h-1
			c-1.4-3.9-5.2-4-6.3-5.2c-1-1-2.3-2.6-3.3-3.9c-0.4-0.5-0.9,0-1,0.6c-0.3,4.1-1,7.7,0.1,9.2c4.2,5.3,7.8,0.4,11.7,1.6
			c-0.2,0-0.4,2.1,0.8,2.3c0.9,0.2,2.9,0.1,3.6-0.3c0.9-0.6,0.7-2.8,0.7-2.8l1.1-0.1c1.5,1.6,5.9,1.5,8-0.2
			C99.6,40.5,100.2,36.2,99.8,32z M72.8,36.5c0.3,3,1.7,4.5,2.8,5C72.3,40.5,72.8,38.5,72.8,36.5z M80.5,40.8
			c-0.5,1.5-7,0.7-6.6-5.6c0.7,1.2,2.3,1.7,3.9,2.4C78.9,38.1,80.9,39.8,80.5,40.8z M90.4,36.5c0,0-0.3-0.5-0.6-0.8
			c0,0,0.2-0.6,0.8-1.3c0.3,0.3,0.8,1,0.8,1S91,36,90.4,36.5z M90,30.3c0,0,0.3-1.4,0.8-1.7C91.4,29,92,30,92,30s-0.5,0.5-0.8,1.3
			C90.4,30.5,90,30.3,90,30.3z M92.7,34.1c-0.6-0.9-1-1.2-1-1.2s0.3-0.9,1-1.5c0.4,0.3,0.8,1.2,0.8,1.2S93.3,33.2,92.7,34.1z
			 M94.6,25c0.2,0.7,0.1,1.2,0,1.9c-0.4-0.5-0.6-0.8-1.1-1.1C93.5,25.8,93.9,25.4,94.6,25z M94.2,28.2c0.3,0.2,0.4,1.1,0.4,1.1
			c-0.1,0.6-0.6,1.5-0.6,1.5s-0.3-0.8-0.8-1.2C93.4,29.2,93.8,28.5,94.2,28.2z M91.5,23.1c0.6,1,0.5,1.9,0.5,1.9
			c-0.3-0.2-1-0.4-2.1-0.6C89.9,24.4,90.6,23.7,91.5,23.1z M87.6,22.2c0.9,0.8,1,1.9,1,1.9c-0.9-0.1-1.5-0.4-2.1-0.8
			C86.5,23.3,86.9,22.5,87.6,22.2z M83.6,22.2c0.6,0.3,1,1.1,1.1,1.1C84,23.6,83.5,24,82.6,24C82.6,24,82.7,23,83.6,22.2z
			 M79.9,22.9c0.9,0.6,1.6,1.3,1.6,1.3c-1.1,0.2-1.8,0.4-2.1,0.6C79.4,24.7,79.3,23.8,79.9,22.9z M82.8,25.2c0,0.6-0.8,1.1-0.5,2
			c0.4-1,2-2.2,2.4-2.5c0.7,0.6,0.3,1.8,0.8,3c0.6-0.2,0.1-2.8,0.9-2.9c0.3,1,1.6,1.6,2,2.4c0.3-1.1-1.2-1.8-0.7-2.1
			c1.7,0.9,4.2,0.5,5.3,2.6l-0.9,1c0,0-0.5-0.9-1.6-1.4c-0.7,0.8-1.1,2.2-1.1,2.2s-0.6-1.4-1.8-2c-1.4,0.4-2.3,1.7-2.3,1.7
			s-0.8-1.3-2-1.9c-1.3,0.6-1.8,1.6-1.8,1.6s-0.5-1-1.1-1.6c-0.6,0.1-1.9,1-1.9,1l-0.6-1C79,25.9,82.3,25.5,82.8,25.2z M88.4,30.5
			c0,0-0.7,0.5-1,1.2c-0.4-0.7-1-1-1-1s0.4-1.4,1-1.8C88,29.3,88.4,30.5,88.4,30.5z M84.5,30.4c0,0-0.6,0.3-1,1
			c-0.4-0.7-1.1-1.2-1.1-1.2s0.4-1.2,1-1.6C84,29.1,84.5,30.4,84.5,30.4z M76.9,30.6c0,0-0.5-0.9-0.6-1.5c0,0,0.1-0.9,0.4-1.1
			c0.4,0.3,0.8,1,1,1.4C77.2,29.8,76.9,30.6,76.9,30.6z M77.2,26.5c-0.1-0.7-0.2-1.2,0-1.9c0.7,0.4,1,0.8,1.1,0.8
			C77.8,25.7,77.6,26,77.2,26.5z M78.6,33.8c-0.6-0.9-0.8-1.5-0.8-1.5s0.4-0.9,0.8-1.2c0.7,0.6,1,1.5,1,1.5S79.2,33,78.6,33.8z
			 M78.8,30.2c0,0,0.6-1.1,1.2-1.6c0.5,0.2,0.8,1.6,0.8,1.6s-0.4,0.3-1,1.2C79.4,30.6,78.8,30.2,78.8,30.2z M81.3,36.5
			c-0.6-0.5-1-1.1-1-1.1s0.5-0.7,0.8-1c0.6,0.7,0.8,1.3,0.8,1.3C81.5,36,81.3,36.5,81.3,36.5z M82.1,34.3c-0.4-0.7-1.1-1.4-1.1-1.4
			s0.3-1,0.9-1.5c0.8,0.5,1.3,1.6,1.3,1.6S82.4,33.6,82.1,34.3z M84.3,37.1c-0.3-0.7-1.1-1.4-1.1-1.4s0.5-1,1.1-1.2
			c0.6,0.4,0.9,1.5,0.9,1.5S84.7,36.4,84.3,37.1z M84.6,32.7c0,0,0.4-1,1.1-1.5c0.7,0.5,1.1,1.5,1.1,1.5s-0.6,0.6-1.1,1.5
			C85.2,33.3,84.6,32.7,84.6,32.7z M87.5,43.7c0,0.7-1.4,1-1.6,0.5c-0.5-1.7,0-2.8,0-4.5c0.5-0.4,1.1-0.3,1.5-0.2
			C87.5,40.9,87.6,42.1,87.5,43.7z M87.3,37.1c-0.4-0.7-0.9-1.1-0.9-1.1s0.3-1.1,0.9-1.5c0.6,0.2,1.1,1.2,1.1,1.2
			S87.6,36.4,87.3,37.1z M87.9,33.2c0,0,0.5-1.1,1.2-1.7c0.6,0.5,1,1.4,1,1.4s-0.7,0.8-1,1.5C88.7,33.7,87.9,33.2,87.9,33.2z
			 M91.6,41.5c2.4,0.1,5.2-1.6,6.1-3.9C98.1,40,94.4,43.8,91.6,41.5z M92.5,40.3c-0.8-0.5,0.9-2.6,1.8-3c1.3-0.6,3.4-2.8,4-3.8
			C97.9,38.7,93.4,41,92.5,40.3z"/>
	</g>
	<g>
		<path class="st1" d="M126.2,32.2c-0.1-0.9-0.9-1.3-1-0.8c-0.4,2.4-3.2,3.6-4.4,4.8c-0.9,0.9-1.2,1.4-1.9,2.6
			c-0.3,0.5-1.8,0.5-1.8,0.5s-0.2-1.1,0.5-1.5c2.7-1.7,3.5-2.6,4.8-5.1c0.8-1.6,1.6-3.6,0.5-5.2c-0.1-1-0.3-1.2-0.6-2
			c-0.9,0.1-1.4,1-1.4,1s-0.5-1.9-1.2-2.7c-1.1,0.4-1.8,1.6-1.8,1.6s-0.5-1.5-1.4-2.4c-1.1,0.4-1.9,1.4-1.9,1.4s-0.7-0.9-1.6-1.5
			c-1.2,0.8-1.7,1.9-1.7,1.9s-0.6-0.7-1.7-1.1c-0.7,0.8-1,2.2-1,2.2s-0.6-0.7-1.2-1c-0.7,0.4-0.3,1.9-0.6,1.9
			c-3.1,4.1,2.9,9.7,5.2,11.3c0.7,0.5,0.5,1.6,0.5,1.6h-0.8c-1.1-3.2-4.2-3.3-5.2-4.2c-0.8-0.8-1.9-2.1-2.7-3.2
			c-0.3-0.4-0.7,0-0.8,0.5c-0.3,3.3-0.9,6.3,0.1,7.5c3.5,4.4,6.4,0.4,9.5,1.3c0.1-0.3-0.1,1.4,0.9,1.6c0.8,0.1,2.4,0.1,2.9-0.2
			c0.8-0.4,0.6-2.3,0.6-2.3h0.9c1.2,1.3,4.8,1.2,6.5-0.2C126,39.2,126.5,35.7,126.2,32.2z M104.2,35.9c0.2,2.4,1.4,3.6,2.3,4.1
			C103.8,39.1,104.2,37.6,104.2,35.9z M110.5,39.3c-0.4,1.3-5.7,0.6-5.4-4.5c0.6,1,1.9,1.4,3.2,1.9
			C109.2,37.1,110.8,38.5,110.5,39.3z M116.6,33.1c0,0,0.3-0.8,1-1.3c0.5,0.4,0.8,1.1,0.8,1.1s-0.5,0.6-0.8,1.2
			C117.3,33.5,116.6,33.1,116.6,33.1z M116,31.9c-0.3-0.6-0.8-0.8-0.8-0.8s0.5-1.1,0.9-1.5c0.5,0.4,0.8,1.3,0.8,1.3
			S116.3,31.3,116,31.9z M118.2,30.8c0,0,0.2-1.1,0.6-1.4c0.5,0.4,1,1.2,1,1.2s-0.4,0.4-0.7,1C118.6,31,118.2,30.8,118.2,30.8z
			 M118.6,35.9c0,0-0.2-0.5-0.5-0.7c0,0,0.2-0.5,0.7-1c0.2,0.2,0.6,0.8,0.6,0.8S119.1,35.5,118.6,35.9z M122,26.5
			c0.2,0.6,0.1,1,0,1.5c-0.3-0.4-0.5-0.6-0.9-0.9C121.1,27.1,121.4,26.8,122,26.5z M121.7,29c0.2,0.2,0.4,0.9,0.4,0.9
			c-0.1,0.5-0.5,1.2-0.5,1.2s-0.3-0.5-0.7-0.9C121.1,29.9,121.4,29.3,121.7,29z M121.2,32.6c0,0-0.2,0.5-0.7,1.2
			c-0.5-0.6-0.8-0.9-0.8-0.9s0.3-0.8,0.8-1.2C120.9,31.9,121.2,32.6,121.2,32.6z M119.5,24.9c0.5,0.8,0.4,1.5,0.4,1.5
			c-0.2-0.2-0.8-0.4-1.7-0.5C118.2,25.9,118.8,25.4,119.5,24.9z M116.3,24.2c0.7,0.7,0.9,1.5,0.9,1.5c-0.7-0.1-1.2-0.4-1.7-0.6
			C115.4,25,115.7,24.5,116.3,24.2z M113,24.1c0.5,0.4,0.9,0.9,0.9,0.9c-0.5,0.3-1,0.6-1.7,0.6C112.2,25.6,112.3,24.8,113,24.1z
			 M112.4,26.7c0,0.5-0.6,0.9-0.4,1.6c0.4-0.8,1.7-1.8,1.9-2c0.6,0.5,0.2,1.4,0.6,2.4c0.5-0.2,0.1-2.3,0.7-2.4
			c0.2,0.8,1.4,1.3,1.6,1.9c0.2-0.9-1-1.4-0.6-1.7c1.4,0.7,3.5,0.4,4.3,2.1l-0.7,0.8c0,0-0.5-0.8-1.3-1.2c-0.6,0.6-0.9,1.8-0.9,1.8
			s-0.5-1.1-1.5-1.6c-0.9,0.5-1.7,1.5-1.7,1.5s-0.7-1.1-1.6-1.5c-1,0.5-1.5,1.3-1.5,1.3s-0.4-0.8-0.9-1.3c-0.5,0.1-1.6,0.8-1.6,0.8
			l-0.5-0.8C109.2,27.2,111.9,26.9,112.4,26.7z M113.8,30.8c0,0-0.5,0.3-0.8,0.9c-0.3-0.6-0.9-1-0.9-1s0.3-0.9,0.8-1.3
			C113.4,29.8,113.8,30.8,113.8,30.8z M110,24.7c0.7,0.5,1.3,1,1.3,1c-0.9,0.1-1.4,0.3-1.7,0.5C109.6,26.2,109.5,25.5,110,24.7z
			 M107.5,31c0,0-0.4-0.7-0.5-1.2c0,0,0.2-0.7,0.4-0.9c0.3,0.3,0.6,0.9,0.8,1.2C107.8,30.4,107.5,31,107.5,31z M107.8,27.6
			c-0.1-0.5-0.2-0.9,0-1.5c0.5,0.3,0.8,0.7,0.9,0.6C108.3,27,108.1,27.2,107.8,27.6z M109,33.6c-0.5-0.7-0.7-1.2-0.7-1.2
			s0.3-0.7,0.7-0.9c0.5,0.4,0.8,1.2,0.8,1.2S109.4,33,109,33.6z M109.1,30.7c0,0,0.5-0.9,1-1.3c0.4,0.2,0.6,1.3,0.6,1.3
			s-0.3,0.2-0.8,1C109.6,31.1,109.1,30.7,109.1,30.7z M111.1,35.9c-0.5-0.4-0.8-0.9-0.8-0.9s0.4-0.6,0.6-0.8c0.5,0.5,0.7,1,0.7,1
			C111.4,35.4,111.1,35.9,111.1,35.9z M111.8,34c-0.3-0.5-0.9-1.1-0.9-1.1s0.3-0.8,0.8-1.2c0.6,0.4,1,1.3,1,1.3S112.1,33.4,111.8,34
			z M113.6,36.4c-0.2-0.6-0.9-1.2-0.9-1.2s0.4-0.8,0.9-1c0.5,0.3,0.8,1.3,0.8,1.3S113.9,35.8,113.6,36.4z M113.8,32.7
			c0,0,0.3-0.8,0.9-1.2c0.6,0.4,0.9,1.2,0.9,1.2s-0.5,0.5-0.9,1.2C114.3,33.2,113.8,32.7,113.8,32.7z M114.9,42.1
			c-0.4-1.4,0-2.3,0-3.7c0.5-0.2,0.9-0.2,1.3-0.1c0.1,1.2,0.1,2.2,0.1,3.4C116.3,42.3,115,42.5,114.9,42.1z M116.1,36.4
			c-0.3-0.6-0.8-0.9-0.8-0.9s0.3-1,0.8-1.3c0.5,0.2,0.9,1,0.9,1S116.3,35.8,116.1,36.4z M119.6,40c1.9,0,4.2-1.3,5-3.2
			C124.9,38.8,121.9,41.9,119.6,40z M120.3,39c-0.6-0.5,0.7-2.2,1.5-2.5c1.1-0.5,2.8-2.3,3.3-3.1C124.7,37.7,121.1,39.5,120.3,39z"
			/>
	</g>
	<g>
		<path class="st1" d="M68,32.2c-0.1-0.9-0.9-1.3-1-0.8c-0.4,2.4-3.2,3.6-4.4,4.8c-0.9,0.9-1.2,1.4-1.9,2.6
			c-0.3,0.5-1.8,0.5-1.8,0.5s-0.2-1.1,0.5-1.5c2.7-1.7,3.5-2.6,4.8-5.1c0.8-1.6,1.6-3.6,0.5-5.2c-0.1-1-0.3-1.2-0.6-2
			c-0.9,0.1-1.4,1-1.4,1s-0.5-1.9-1.2-2.7c-1.1,0.4-1.8,1.6-1.8,1.6s-0.5-1.5-1.4-2.4c-1.1,0.4-1.9,1.4-1.9,1.4s-0.7-0.9-1.6-1.5
			c-1.2,0.8-1.7,1.9-1.7,1.9s-0.6-0.7-1.7-1.1c-0.7,0.8-1,2.2-1,2.2s-0.6-0.7-1.2-1c-0.7,0.4-0.3,1.9-0.6,1.9
			c-3.1,4.1,2.9,9.7,5.2,11.3c0.7,0.5,0.5,1.6,0.5,1.6h-0.8c-1.1-3.2-4.2-3.3-5.2-4.2c-0.8-0.8-1.9-2.1-2.7-3.2
			c-0.3-0.4-0.7,0-0.8,0.5c-0.2,3-0.8,6,0.2,7.2c3.5,4.4,6.4,0.4,9.5,1.3c0,0-0.2,1.7,0.8,1.9c0.8,0.1,2.4,0.1,2.9-0.2
			c0.8-0.4,0.6-2.3,0.6-2.3h0.9c1.2,1.3,4.8,1.2,6.5-0.2C67.8,39.2,68.3,35.7,68,32.2z M46,35.9c0.2,2.4,1.4,3.6,2.3,4.1
			C45.6,39.1,46,37.6,46,35.9z M52.3,39.3c-0.4,1.3-5.7,0.6-5.4-4.5c0.6,1,1.9,1.4,3.2,1.9C51,37.1,52.6,38.5,52.3,39.3z M60.4,35.9
			c0,0-0.2-0.5-0.5-0.7c0,0,0.2-0.5,0.7-1c0.2,0.2,0.6,0.8,0.6,0.8S60.9,35.5,60.4,35.9z M60,30.8c0,0,0.2-1.1,0.6-1.4
			c0.5,0.4,1,1.2,1,1.2s-0.4,0.4-0.7,1C60.4,31,60,30.8,60,30.8z M63.8,26.5c0.2,0.6,0.1,1,0,1.5c-0.3-0.4-0.5-0.6-0.9-0.9
			C62.9,27.1,63.2,26.8,63.8,26.5z M63.5,29c0.2,0.2,0.4,0.9,0.4,0.9c-0.1,0.5-0.5,1.2-0.5,1.2s-0.3-0.5-0.7-0.9
			C62.9,29.9,63.2,29.3,63.5,29z M63,32.6c0,0-0.2,0.5-0.7,1.2c-0.5-0.6-0.8-0.9-0.8-0.9s0.3-0.8,0.8-1.2C62.7,31.9,63,32.6,63,32.6
			z M61.3,24.9c0.5,0.8,0.4,1.5,0.4,1.5c-0.2-0.2-0.8-0.4-1.7-0.5C60,25.9,60.6,25.4,61.3,24.9z M58.1,24.2c0.7,0.7,0.9,1.5,0.9,1.5
			c-0.7-0.1-1.2-0.4-1.7-0.6C57.2,25,57.5,24.5,58.1,24.2z M54.8,24.1c0.5,0.4,0.8,0.9,0.9,0.9c-0.5,0.3-1,0.6-1.7,0.6
			C54,25.6,54.1,24.8,54.8,24.1z M54.2,26.7c0,0.5-0.6,0.9-0.4,1.6c0.4-0.8,1.7-1.8,1.9-2c0.6,0.5,0.2,1.4,0.6,2.4
			c0.5-0.2,0.1-2.3,0.7-2.4c0.2,0.8,1.3,1.3,1.6,1.9c0.2-0.9-1-1.4-0.6-1.7c1.4,0.7,3.5,0.4,4.3,2.1l-0.7,0.8c0,0-0.5-0.8-1.3-1.2
			c-0.6,0.6-0.9,1.8-0.9,1.8s-0.5-1.1-1.5-1.6c-0.9,0.5-1.7,1.5-1.7,1.5s-0.7-1.1-1.6-1.5c-1,0.5-1.5,1.3-1.5,1.3s-0.4-0.8-0.9-1.3
			c-0.4,0.1-1.6,0.8-1.6,0.8l-0.5-0.8C51,27.2,53.7,26.9,54.2,26.7z M58.7,30.9c0,0-0.6,0.4-0.9,1c-0.3-0.6-0.8-0.8-0.8-0.8
			s0.4-1.1,0.9-1.5C58.4,30,58.7,30.9,58.7,30.9z M55.5,30.8c0,0-0.5,0.3-0.8,0.9c-0.3-0.6-0.9-1-0.9-1s0.4-0.9,0.9-1.3
			C55.1,29.8,55.5,30.8,55.5,30.8z M51.8,24.7c0.7,0.5,1.3,1,1.3,1c-0.9,0.1-1.5,0.3-1.7,0.5C51.4,26.2,51.3,25.5,51.8,24.7z
			 M49.3,31c0,0-0.4-0.7-0.5-1.2c0,0,0.2-0.7,0.4-0.9c0.3,0.3,0.6,0.9,0.8,1.2C49.5,30.4,49.3,31,49.3,31z M49.6,27.6
			c-0.1-0.5-0.2-0.9,0-1.5c0.5,0.3,0.8,0.7,0.9,0.6C50.1,27,49.9,27.2,49.6,27.6z M50.8,33.6c-0.5-0.7-0.7-1.2-0.7-1.2
			s0.3-0.7,0.7-0.9c0.5,0.4,0.8,1.2,0.8,1.2S51.2,33,50.8,33.6z M50.9,30.7c0,0,0.5-0.9,1-1.3c0.4,0.2,0.6,1.3,0.6,1.3
			s-0.3,0.2-0.8,1C51.4,31.1,50.9,30.7,50.9,30.7z M52.9,35.9c-0.5-0.4-0.8-0.9-0.8-0.9s0.4-0.6,0.6-0.8c0.5,0.5,0.7,1,0.7,1
			C53.1,35.4,52.9,35.9,52.9,35.9z M53.6,34c-0.3-0.5-0.9-1.1-0.9-1.1s0.3-0.8,0.8-1.2c0.6,0.4,1,1.3,1,1.3S53.9,33.4,53.6,34z
			 M55.4,36.4c-0.2-0.6-0.9-1.2-0.9-1.2s0.4-0.8,0.9-1c0.5,0.3,0.8,1.3,0.8,1.3S55.7,35.8,55.4,36.4z M55.6,32.7
			c0,0,0.3-0.8,0.9-1.2c0.6,0.4,0.9,1.2,0.9,1.2s-0.5,0.5-0.9,1.2C56.1,33.2,55.6,32.7,55.6,32.7z M58,41.7c0,0.6-1.2,0.8-1.3,0.4
			c-0.4-1.4,0-2.3,0-3.7c0.5-0.2,0.9-0.2,1.3-0.1C58,39.5,58.1,40.5,58,41.7z M57.8,36.4c-0.3-0.6-0.8-0.9-0.8-0.9s0.4-1,0.8-1.3
			c0.5,0.2,0.9,1,0.9,1S58,35.8,57.8,36.4z M58.4,33.1c0,0,0.3-0.8,1-1.3c0.5,0.4,0.8,1.1,0.8,1.1s-0.5,0.6-0.8,1.2
			C59.1,33.5,58.4,33.1,58.4,33.1z M61.5,40c1.8,0,4.1-1.3,4.9-3.2C66.7,38.8,63.7,41.9,61.5,40z M62.1,39c-0.6-0.5,0.7-2.2,1.5-2.5
			c1.1-0.5,2.8-2.3,3.3-3.1C66.5,37.7,62.9,39.5,62.1,39z"/>
	</g>
	<path class="st2" d="M85.3,137.8c-19.9,0-35.6-5.3-46.7-10.8v-5.5c0-2,0-3.3-1.8-4.5c-4-2.6-6.9-2.1-9.5-3.4
		c-1.8-0.9-2.3-1.5-3.1-4c-1.8,1.6-2.5,2.9-2.7,5.1c-0.1,2,0.3,3.4,1.6,4.9c-1.5,1.1-2.1,2.6-1.9,4.5c0.2,2.1,1.7,3,3.5,4.1
		c0.9,0.6,2.1,1,3.7,1.1v3.8c0,2.6,0,3.9,1.7,4.8c16.9,8.8,31.7,13.6,55.2,13.6s38.3-4.8,55.2-13.6c1.7-0.9,1.7-2.3,1.7-4.8v-3.8
		c1.6-0.1,2.8-0.5,3.7-1.1c1.8-1.1,3.3-2,3.5-4.1c0.2-1.9-0.4-3.3-1.9-4.5c1.3-1.6,1.7-2.9,1.6-4.9c-0.1-2.3-0.9-3.5-2.7-5.1
		c-0.8,2.6-1.3,3.2-3.1,4c-2.7,1.3-5.5,0.9-9.5,3.4c-1.9,1.2-1.8,2.4-1.8,4.5v5.5C121,132.4,105.2,137.8,85.3,137.8"/>
	<path class="st1" d="M46.5,140c0,0.6,0,1.1,0,1.6c0.6,0.4,1.3,0.6,1.9,0.6c2,0.1,3-0.8,3-2c0.1-1.4-0.9-1.7-2.3-2.1
		c-1.3-0.3-1.7-0.5-1.7-1.2s0.7-1.2,1.8-1.1c0.8,0,1.6,0.4,1.7,1.3h0.2c0-0.5,0-1,0-1.5c-0.4-0.3-1.3-0.4-1.8-0.4
		c-1.7-0.1-2.9,0.8-2.9,1.8c-0.1,1.3,0.9,1.7,2.7,2.1c0.7,0.2,1.2,0.4,1.2,1.2c-0.1,1-1,1.3-1.7,1.3c-1.1-0.1-1.8-0.6-2-1.6
		L46.5,140 M32.3,135.2c0,0.3-0.1,0.4-0.5,0.4v0.1c0.2,0,0.7-0.1,1.1-0.1c0.4,0,0.9,0.1,1.1,0.1v-0.1c-0.4-0.1-0.5-0.1-0.5-0.4v-5.6
		h0.6c0.9,0,1.8,0.1,1.8,1.2c0,0.9-0.8,1.4-1.9,1.4c-0.1,0-0.2,0-0.2,0.1c0,0,0.1,0.1,0.2,0.3l1.4,1.8c0.9,1.2,1,1.4,1.1,1.4
		c0.3,0,0.5-0.1,0.8-0.1c0.2,0,0.4,0.1,0.6,0.1v-0.1c-0.3,0-0.6-0.3-0.9-0.7l-2-2.5c1-0.1,2-0.7,2-1.8c0-0.9-0.5-1.6-1.9-1.6H32v0.1
		c0.4,0.1,0.5,0.1,0.5,0.5v5.5H32.3z M133.9,135.6c0,0.3-0.1,0.4-0.5,0.5v0.2l5.5-0.1c0-0.6,0-1.2,0.1-1.7h-0.2
		c-0.2,1-0.6,1.2-1.5,1.2H135V133h1.5c0.4,0,0.6,0,0.7,0.6h0.2c0-0.3-0.1-0.6-0.1-0.9c0-0.3,0-0.6,0-0.9h-0.2
		c-0.1,0.6-0.3,0.6-0.7,0.6h-1.5v-2.3h2.5c0.5,0,0.8,0.1,1,1h0.2c-0.1-0.5-0.1-1-0.1-1.6l-5.2,0.1v0.2c0.4,0.1,0.6,0.1,0.6,0.4
		V135.6z M131.7,138.1c-0.6,0.4-1.3,0.7-2.1,0.6c-1.5,0-2.7-1.6-2.6-3.2c0-1.5,1.1-2.5,2.6-2.5c0.8,0,1.7,0.3,1.8,1.3h0.2
		c0-0.5-0.1-1.1-0.1-1.6c-0.5-0.2-1.1-0.4-1.6-0.4c-1.5,0-3.8,0.9-3.9,3.5c-0.1,2.5,1.8,3.5,3.2,3.6c0.9,0,1.8-0.2,2.4-0.8
		L131.7,138.1z M122.1,142c0.2,0,0.7-0.1,1.1-0.1s0.9,0.1,1.1,0.1v-0.1c-0.4-0.1-0.5-0.2-0.5-0.5v-5.7c0-0.3,0.1-0.4,0.5-0.5v-0.1
		c-0.2,0-0.7,0.1-1.1,0.1s-0.9-0.1-1.1-0.1v0.1c0.4,0.1,0.5,0.1,0.5,0.5v5.7c0,0.3-0.1,0.4-0.5,0.5V142z M115.6,143.6
		c0,0.3-0.1,0.4-0.5,0.4v0.2c0.2,0,0.7-0.1,1.1-0.1s0.9,0.1,1.1,0.1V144c-0.4-0.1-0.5-0.1-0.5-0.4v-5.7h0.3c1.5,0,2.4,0.2,2.4,1.6
		c0,1-0.8,1.6-1.8,1.6h-0.6c-0.1,0-0.2,0-0.2,0.1s0,0.1,0.1,0.1c0.2,0.2,0.8,0.3,1,0.3c1.5,0,2.5-0.8,2.5-2.1c0-1.2-0.7-2-2.1-2H115
		v0.1c0.4,0.1,0.5,0.2,0.5,0.4L115.6,143.6L115.6,143.6z M107.9,143.4c0,0.6,0.1,1.1,0.1,1.6c0.6,0.4,1.3,0.5,2,0.5
		c2,0,2.9-1,2.9-2.2c0-1.4-1-1.7-2.4-1.9c-1.3-0.3-1.7-0.4-1.7-1.1c0-0.7,0.6-1.2,1.8-1.2c0.8,0,1.6,0.3,1.8,1.2h0.2
		c0-0.5-0.1-1,0-1.5c-0.4-0.2-1.3-0.3-1.8-0.3c-1.7,0-2.8,0.9-2.8,2c0,1.3,1,1.6,2.8,2c0.7,0.2,1.3,0.3,1.3,1.2s-0.9,1.4-1.7,1.4
		c-1.1,0-1.8-0.5-2.1-1.5h-0.4V143.4z M99,144c0.2,1.9,1.6,3.3,3.8,3.1c2.1-0.3,3.2-2.2,3-4c-0.2-1.5-1.4-3.3-3.7-3
		C100.5,140.2,98.8,141.9,99,144 M100,143.6c-0.2-1.9,1.1-2.7,1.9-2.8c1.4-0.2,2.8,0.9,3,2.8c0.2,1.7-0.8,2.6-1.9,2.8
		C101.3,146.5,100.2,145.1,100,143.6 M91.9,147.5c0,0.3-0.1,0.4-0.5,0.4v0.1c0.2,0,0.7-0.1,1.1-0.1s0.8,0.1,1.1,0.1v-0.1
		c-0.4-0.1-0.6-0.1-0.6-0.4v-5.6h0.6c0.9,0,1.8,0.1,1.8,1.2c0,0.9-0.8,1.4-1.9,1.4c-0.1,0-0.2,0-0.2,0.1c0,0,0.1,0.1,0.2,0.3
		l1.4,1.8c0.9,1.2,1,1.4,1.1,1.4c0.3,0,0.6-0.1,0.8-0.1c0.2,0,0.4,0.1,0.6,0.1V148c-0.3,0-0.6-0.3-0.9-0.7l-2-2.5c1-0.1,2-0.7,2-1.8
		c0-0.9-0.5-1.6-1.9-1.6h-3.1v0.1c0.4,0.1,0.5,0.1,0.5,0.4L91.9,147.5L91.9,147.5z M84.4,147.6c0,0.3-0.1,0.4-0.5,0.4v0.1
		c0.2,0,0.7-0.1,1.1-0.1s0.8,0.1,1.1,0.1V148c-0.4-0.1-0.6-0.2-0.6-0.4v-5.7h0.3c1.5,0,2.4,0.2,2.4,1.6c0,1-0.8,1.6-1.8,1.6h-0.6
		c-0.1,0-0.1,0-0.1,0.1s0,0.1,0.1,0.1c0.2,0.2,0.8,0.3,1,0.3c1.5,0,2.5-0.8,2.5-2.1c0-1.2-0.7-2-2.1-2H84v0.1
		c0.4,0.1,0.5,0.2,0.5,0.4v5.6H84.4z M73.4,147.2c0,0.3-0.1,0.4-0.6,0.4v0.1h5.5c0-0.6,0.1-1.2,0.1-1.7h-0.2c-0.2,1-0.6,1.1-1.5,1.1
		h-2.3v-2.7H76c0.4,0,0.6,0,0.7,0.6h0.2c0-0.3-0.1-0.6-0.1-0.9c0-0.3,0-0.6,0.1-0.9h-0.2c-0.1,0.6-0.3,0.6-0.7,0.6h-1.5v-2.3H77
		c0.5,0,0.8,0.1,1,1h0.2c0-0.5-0.1-1-0.1-1.6h-5.2v0.1c0.4,0.1,0.6,0.2,0.6,0.4L73.4,147.2L73.4,147.2z M70.6,145.8
		c-0.6,0.4-1.3,0.7-2.1,0.7c-1.5,0-2.7-1.5-2.7-3.2c0-1.5,1.1-2.5,2.5-2.5c0.8,0,1.7,0.3,1.9,1.3h0.1c0-0.5-0.1-1.1-0.1-1.6
		c-0.5-0.2-1.1-0.3-1.6-0.3c-1.5,0-3.8,1-3.8,3.5s1.9,3.5,3.3,3.5c0.9,0,1.8-0.2,2.4-0.8L70.6,145.8z M60.6,146
		c0.2,0,0.7-0.1,1.1-0.1c0.4,0,0.9,0.1,1.1,0.1v-0.2c-0.4-0.1-0.6-0.1-0.6-0.4v-5.7c0-0.3,0.1-0.4,0.6-0.4v-0.1
		c-0.2,0-0.7,0.1-1.1,0.1c-0.4,0-0.8-0.1-1.1-0.1v0.1c0.4,0.1,0.6,0.1,0.6,0.4v5.7c0,0.3-0.1,0.4-0.6,0.4V146z M54,143.5
		c0,0.3-0.1,0.4-0.6,0.4v0.2c0.2,0,0.7-0.1,1.1-0.1c0.4,0,0.9,0.1,1.1,0.1v-0.2c-0.4-0.1-0.5-0.1-0.5-0.4v-5.7h0.3
		c1.5,0,2.4,0.2,2.4,1.6c0,1-0.8,1.5-1.8,1.5h-0.6c-0.1,0-0.2,0-0.2,0.1s0,0.1,0.1,0.1c0.2,0.2,0.8,0.3,1,0.3c1.4,0,2.5-0.8,2.5-2.1
		c0-1.2-0.7-2-2.1-2h-3.2v0.2c0.4,0.1,0.6,0.1,0.6,0.4L54,143.5L54,143.5z M39.7,138.8c0,0.3-0.1,0.4-0.5,0.4v0.2h5.5
		c0-0.6,0.1-1.2,0.1-1.7h-0.2c-0.2,1-0.6,1.1-1.5,1.2h-2.3v-2.7h1.5c0.4,0,0.6,0,0.7,0.6h0.2c0-0.3-0.1-0.6-0.1-0.9
		c0-0.3,0-0.6,0.1-0.9H43c-0.1,0.6-0.3,0.6-0.7,0.6h-1.5v-2.3h2.5c0.5,0,0.8,0.1,1,1h0.2c0-0.5-0.1-1.1-0.1-1.6h-5.2v0.2
		c0.4,0.1,0.6,0.1,0.6,0.4L39.7,138.8z"/>
	<path class="st1" d="M85.3,136.8h-4.5l-2.7-0.2c-6.4-0.4-13-1.5-19.3-3.1c-6.5-1.7-12.9-4.1-19.4-7.2v-6.6c0-0.1-0.1-0.7-0.2-1
		c-0.1-0.2-0.2-0.7-0.4-0.9c-0.7-1.3-3-2.5-4.7-3.1c-1.8-0.7-3.7-1-5.5-1.5c-1-0.3-2.9-1.2-3.3-2.5c-0.3-0.9-0.6-1.8-1-2.7
		c-0.3,0.3-0.6,0.6-0.9,0.9c-2.2,1.7-2.9,3.8-3,5.6c0,0.5,0,0.8,0,0.9c0,1.3,0.5,2.9,1.4,4.1c-0.7,0.4-1.6,2.4-1.6,3.1v1.5
		c0,0.1,0.1,0.3,0.1,0.4c0.3,2.5,4.1,5.1,7.1,5.5l0.1,0.1v4.9c0,1,0.5,2.8,1.6,3.4c5.3,3,11,5.5,16.4,7.5c1.3,0.5,2.7,1,4,1.4
		c7.9,2.5,16,4.1,23.9,4.7l5.5,0.3l6.4,0.1l6.4-0.1l5.5-0.3c7.9-0.7,16-2.2,23.9-4.7c1.3-0.4,2.7-0.9,4-1.4c5.4-2,11.1-4.4,16.4-7.5
		c1.1-0.6,1.6-2.4,1.6-3.4v-5c0,0,0,0,0.1-0.1c3-0.4,6.8-3,7.1-5.5c0-0.1,0.1-0.3,0.1-0.4v-1.5c0-0.7-0.9-2.7-1.6-3.1
		c0.9-1.2,1.4-2.9,1.4-4.1c0-0.1,0-0.3,0-0.9c-0.1-1.8-0.8-3.9-3-5.6c-0.3-0.3-0.6-0.6-0.9-0.9c-0.3,0.9-0.7,1.8-1,2.7
		c-0.4,1.4-2.3,2.2-3.3,2.5c-1.8,0.6-3.7,0.8-5.5,1.5c-1.7,0.7-3.9,1.8-4.7,3.1c-0.1,0.3-0.3,0.7-0.4,0.9c-0.1,0.3-0.2,1-0.2,1v6.6
		c-6.4,3.1-12.9,5.5-19.4,7.2c-6.4,1.6-12.9,2.7-19.3,3.1l-2.7,0.2h-4.5 M30,121.5h0.3c0.4,0,3.1,0.8,3.4,0.8
		c0.6,0.1,1.2,0.2,1.8,0.3h0.9c0.4,0,1-0.1,1.4-0.1v3C35.2,124.4,32.5,122.9,30,121.5 M146.9,110.9c-0.3,0.9-0.8,1.8-1.9,2.6
		c-1.5,1.1-3.1,1.4-4.7,1.8c-1,0.2-2.2,0.5-3.3,0.9c-1.4,0.6-3.4,1.5-3.9,2.6c-0.1,0.3-0.2,0.9-0.2,1v1.1c0.2,0.1,1.1,0.2,1.4,0.2
		c2.3,0,4.4-1.2,6.3-1.2c0.1,0,0.5,0,0.7,0s0.4,0.1,0.6,0.2c0.3,0.1,1.1,0.7,1.1,0.9c0,0.1,0.2,0.3,0.2,0.4v6.9h0.2
		c0.5,0,2.3-0.9,2.4-1c2.3-1.4,3-2.3,3-4c0-2.6-2.2-3.2-2.2-3.6c0-0.3,2-2,2-4.4C148.5,113.9,148.2,112.3,146.9,110.9 M140.7,121.5
		h-0.3c-0.4,0-3.2,0.8-3.4,0.8c-0.6,0.1-1.2,0.2-1.8,0.3h-0.9c-0.4,0-1-0.1-1.4-0.1v3C135.5,124.4,138.2,122.9,140.7,121.5
		 M85.3,150.7h-1.9l-5-0.1l-4.8-0.3c-7.6-0.7-15.2-2-22.8-4.4c-2-0.6-4-1.4-6-2.2c-3.2-1.2-6.4-2.6-9.5-4.1c-1.3-0.6-2.6-1.5-3.9-2
		c-0.9-0.3-2.2-1.5-2-2.4c0-0.1,0-0.3,0-0.4V123c8.1,4.5,16.3,8.2,24.4,10.7c4.3,1.3,8.7,2.4,13,3.1c3.9,0.7,7.6,1.2,11.5,1.5
		c2.2,0.1,0.7,0.1,7.3,0.2c6.6-0.1,5.1-0.1,7.3-0.2c3.9-0.2,7.6-0.8,11.5-1.5c4.2-0.7,8.6-1.8,13-3.1c8.1-2.5,16.3-6.3,24.4-10.7
		v11.7c0,0.1-0.1,0.3,0,0.4c0.2,0.9-1.1,2-2,2.4c-1.4,0.5-2.6,1.3-3.9,2c-3.1,1.5-6.3,2.9-9.5,4.1c-2,0.8-4,1.5-6,2.2
		c-7.6,2.4-15.2,3.8-22.8,4.4l-4.9,0.3l-5,0.1h-2.4V150.7z M23.7,110.9c0.3,0.9,0.8,1.8,1.9,2.6c1.5,1.1,3.1,1.4,4.7,1.8
		c1,0.2,2.2,0.5,3.3,0.9c1.4,0.6,3.4,1.5,3.9,2.6c0.1,0.3,0.2,0.9,0.2,1v1.1c-0.2,0.1-1.1,0.2-1.4,0.2c-2.3,0-4.4-1.2-6.3-1.2
		c-0.1,0-0.5,0-0.7,0s-0.4,0.1-0.6,0.2c-0.3,0.1-1.1,0.7-1.1,0.9c0,0.1-0.2,0.3-0.2,0.4v6.9h-0.2c-0.5,0-2.3-0.9-2.4-1
		c-2.3-1.4-3-2.3-3-4c0-2.6,2.2-3.2,2.2-3.6c0-0.3-2-2-2-4.4C22.2,113.9,22.5,112.3,23.7,110.9"/>
</g>
</svg>
